<svg data-v-423bf9ae="" xmlns="http://www.w3.org/2000/svg" viewBox="0 0 433 112" class="iconLeft"><!----><!----><!----><g data-v-423bf9ae="" id="b7fea43e-cefd-4628-829a-6eea0fd46cee" fill="#12292A" transform="matrix(5.424955053999871,0,0,5.424955053999871,128.29013465448267,16.44162929866043)"><path d="M4.20 4.90L4.20 4.90Q4.84 4.90 5.39 5.05Q5.94 5.21 6.33 5.49Q6.73 5.78 6.96 6.19Q7.18 6.59 7.18 7.08L7.18 7.08Q7.18 7.71 6.85 8.04Q6.51 8.37 6.02 8.37L6.02 8.37Q5.74 8.37 5.56 8.28Q5.38 8.19 5.26 8.04Q5.14 7.90 5.09 7.71Q5.04 7.53 5.04 7.35L5.04 7.35Q5.04 7.00 5.21 6.75Q5.39 6.50 5.74 6.38L5.74 6.38Q5.54 6.13 5.15 5.98Q4.76 5.82 4.27 5.82L4.27 5.82Q3.82 5.82 3.48 5.98Q3.14 6.13 2.90 6.47Q2.66 6.82 2.53 7.38Q2.41 7.95 2.41 8.78L2.41 8.78Q2.41 9.53 2.51 9.97Q2.60 10.40 2.77 10.72L2.77 10.72Q3.00 11.13 3.35 11.36Q3.70 11.59 4.24 11.59L4.24 11.59Q4.52 11.59 4.84 11.52Q5.15 11.45 5.45 11.32Q5.75 11.19 6.03 10.98Q6.30 10.77 6.51 10.47L6.51 10.47L7.27 11.06Q6.61 11.97 5.75 12.36Q4.89 12.74 3.91 12.74L3.91 12.74Q2.86 12.74 2.14 12.34Q1.43 11.94 1.02 11.17L1.02 11.17Q0.78 10.72 0.65 10.14Q0.52 9.56 0.52 8.89L0.52 8.89Q0.52 7.98 0.77 7.24Q1.02 6.51 1.49 5.98Q1.96 5.46 2.65 5.18Q3.33 4.90 4.20 4.90ZM13.83 11.55L13.83 8.85Q13.83 8.40 13.82 8.07Q13.80 7.74 13.78 7.50Q13.76 7.25 13.71 7.08Q13.66 6.92 13.61 6.79L13.61 6.79Q13.26 6.10 12.38 6.10L12.38 6.10Q11.98 6.10 11.62 6.30Q11.26 6.50 11.05 6.86L11.05 6.86Q10.93 7.06 10.85 7.38Q10.77 7.70 10.77 8.18L10.77 8.18L10.77 11.55L11.70 11.82L11.70 12.60L7.91 12.60L7.91 11.82L8.99 11.55L8.99 2.73L7.91 2.46L7.91 1.68L10.77 1.68L10.77 6.36Q11.13 5.68 11.73 5.29Q12.32 4.90 13.03 4.90L13.03 4.90Q13.64 4.90 14.05 5.05Q14.46 5.19 14.77 5.52L14.77 5.52Q15.20 5.96 15.41 6.71Q15.61 7.46 15.61 8.67L15.61 8.67L15.61 11.55L16.69 11.82L16.69 12.60L12.89 12.60L12.89 11.82L13.83 11.55ZM18.37 6.09L17.29 5.82L17.29 5.04L20.15 5.04L20.15 11.55L21.22 11.82L21.22 12.60L17.29 12.60L17.29 11.82L18.37 11.55L18.37 6.09ZM18.21 2.91L18.21 2.91Q18.21 2.46 18.49 2.18Q18.76 1.90 19.25 1.90L19.25 1.90Q19.74 1.90 20.02 2.18Q20.30 2.46 20.30 2.91L20.30 2.91Q20.30 3.36 20.03 3.63Q19.75 3.91 19.25 3.91L19.25 3.91Q18.75 3.91 18.48 3.63Q18.21 3.36 18.21 2.91ZM21.56 5.95L21.56 5.24L22.93 5.04L23.10 3.30L24.70 3.08L24.70 5.04L26.49 5.04L26.49 5.95L24.70 5.95L24.70 10.53Q24.70 11.00 24.71 11.18Q24.72 11.35 24.77 11.47L24.77 11.47Q24.81 11.55 24.92 11.59Q25.03 11.63 25.28 11.63L25.28 11.63L26.26 11.63L26.26 12.25Q25.45 12.50 24.83 12.62Q24.21 12.74 23.84 12.74L23.84 12.74Q23.21 12.74 23.03 12.22L23.03 12.22Q22.96 12.05 22.94 11.79Q22.92 11.54 22.92 11.00L22.92 11.00L22.92 5.95L21.56 5.95ZM30.80 4.90L30.80 4.90Q31.44 4.90 31.99 5.05Q32.54 5.21 32.94 5.49Q33.33 5.78 33.56 6.19Q33.78 6.59 33.78 7.08L33.78 7.08Q33.78 7.71 33.45 8.04Q33.11 8.37 32.62 8.37L32.62 8.37Q32.34 8.37 32.16 8.28Q31.98 8.19 31.86 8.04Q31.74 7.90 31.69 7.71Q31.64 7.53 31.64 7.35L31.64 7.35Q31.64 7.00 31.82 6.75Q31.99 6.50 32.34 6.38L32.34 6.38Q32.14 6.13 31.75 5.98Q31.36 5.82 30.87 5.82L30.87 5.82Q30.42 5.82 30.08 5.98Q29.74 6.13 29.50 6.47Q29.26 6.82 29.13 7.38Q29.01 7.95 29.01 8.78L29.01 8.78Q29.01 9.53 29.11 9.97Q29.20 10.40 29.37 10.72L29.37 10.72Q29.60 11.13 29.95 11.36Q30.30 11.59 30.84 11.59L30.84 11.59Q31.12 11.59 31.44 11.52Q31.75 11.45 32.05 11.32Q32.35 11.19 32.63 10.98Q32.90 10.77 33.11 10.47L33.11 10.47L33.87 11.06Q33.21 11.97 32.35 12.36Q31.49 12.74 30.51 12.74L30.51 12.74Q29.46 12.74 28.74 12.34Q28.03 11.94 27.62 11.17L27.62 11.17Q27.38 10.72 27.25 10.14Q27.12 9.56 27.12 8.89L27.12 8.89Q27.12 7.98 27.37 7.24Q27.62 6.51 28.09 5.98Q28.56 5.46 29.25 5.18Q29.93 4.90 30.80 4.90ZM40.43 11.55L40.43 8.85Q40.43 8.40 40.42 8.07Q40.40 7.74 40.38 7.50Q40.36 7.25 40.31 7.08Q40.26 6.92 40.21 6.79L40.21 6.79Q39.86 6.10 38.98 6.10L38.98 6.10Q38.58 6.10 38.22 6.30Q37.86 6.50 37.65 6.86L37.65 6.86Q37.53 7.06 37.45 7.38Q37.37 7.70 37.37 8.18L37.37 8.18L37.37 11.55L38.30 11.82L38.30 12.60L34.51 12.60L34.51 11.82L35.59 11.55L35.59 2.73L34.51 2.46L34.51 1.68L37.37 1.68L37.37 6.36Q37.73 5.68 38.33 5.29Q38.92 4.90 39.63 4.90L39.63 4.90Q40.24 4.90 40.65 5.05Q41.06 5.19 41.37 5.52L41.37 5.52Q41.80 5.96 42.01 6.71Q42.21 7.46 42.21 8.67L42.21 8.67L42.21 11.55L43.29 11.82L43.29 12.60L39.49 12.60L39.49 11.82L40.43 11.55ZM43.88 10.95L43.88 10.95Q43.88 10.37 44.14 9.93Q44.39 9.49 44.93 9.16Q45.47 8.82 46.31 8.58Q47.14 8.34 48.29 8.16L48.29 8.16Q48.22 7.46 48.13 7.09Q48.03 6.72 47.88 6.44L47.88 6.44Q47.68 6.12 47.43 5.92Q47.17 5.73 46.76 5.73L46.76 5.73Q46.47 5.73 46.22 5.84Q45.98 5.95 45.89 6.15L45.89 6.15Q46.09 6.26 46.17 6.46Q46.24 6.66 46.24 6.82L46.24 6.82Q46.24 7.17 45.93 7.44Q45.63 7.71 45.19 7.71L45.19 7.71Q44.74 7.71 44.50 7.43Q44.25 7.14 44.25 6.71L44.25 6.71Q44.25 6.27 44.49 5.94Q44.73 5.60 45.12 5.37Q45.51 5.14 46.00 5.02Q46.48 4.90 46.97 4.90L46.97 4.90Q47.63 4.90 48.15 5.09Q48.68 5.28 49 5.56L49 5.56Q50.11 6.54 50.11 8.67L50.11 8.67L50.11 10.49Q50.11 11.19 50.20 11.45Q50.29 11.70 50.60 11.70L50.60 11.70L51.23 11.70L51.23 12.33Q49.94 12.74 49.28 12.74L49.28 12.74Q49.04 12.74 48.90 12.67Q48.75 12.60 48.66 12.43Q48.58 12.26 48.55 11.97Q48.51 11.68 48.51 11.21L48.51 11.21L48.45 11.21Q48.02 11.93 47.31 12.33Q46.59 12.74 45.77 12.74L45.77 12.74Q44.88 12.74 44.38 12.26Q43.88 11.79 43.88 10.95ZM46.62 11.72L46.62 11.72Q46.91 11.72 47.27 11.53Q47.63 11.34 47.89 10.98L47.89 10.98Q48.05 10.78 48.19 10.42Q48.33 10.05 48.33 9.55L48.33 9.55Q48.33 9.38 48.31 9.18Q48.30 8.97 48.27 8.78L48.27 8.78Q47.54 8.93 47.06 9.11Q46.58 9.28 46.28 9.49Q45.99 9.70 45.86 9.97Q45.74 10.25 45.74 10.60L45.74 10.60Q45.74 11.21 46.02 11.47Q46.30 11.72 46.62 11.72ZM51.21 5.95L51.21 5.24L52.58 5.04L52.75 3.30L54.35 3.08L54.35 5.04L56.14 5.04L56.14 5.95L54.35 5.95L54.35 10.53Q54.35 11.00 54.36 11.18Q54.38 11.35 54.42 11.47L54.42 11.47Q54.46 11.55 54.57 11.59Q54.68 11.63 54.94 11.63L54.94 11.63L55.92 11.63L55.92 12.25Q55.10 12.50 54.48 12.62Q53.86 12.74 53.49 12.74L53.49 12.74Q52.86 12.74 52.68 12.22L52.68 12.22Q52.61 12.05 52.59 11.79Q52.57 11.54 52.57 11.00L52.57 11.00L52.57 5.95L51.21 5.95Z"></path></g><defs data-v-423bf9ae=""><linearGradient data-v-423bf9ae="" gradientTransform="rotate(25)" id="30adae7f-6a73-4112-a8ef-ac90d5143ea7" x1="0%" y1="0%" x2="100%" y2="0%"><stop data-v-423bf9ae="" offset="0%" style="stop-color: rgb(18, 38, 99); stop-opacity: 1;"></stop><stop data-v-423bf9ae="" offset="100%" style="stop-color: rgb(93, 215, 173); stop-opacity: 1;"></stop></linearGradient></defs><g data-v-423bf9ae="" id="24a8f937-e023-4868-8fb6-832580fc9d09" transform="matrix(1.1111111111111112,0,0,1.1111111111111112,0.44444444444444287,0.4444446563720703)" stroke="none" fill="url(#30adae7f-6a73-4112-a8ef-ac90d5143ea7)"><path d="M81.177 38.165a30.451 30.451 0 01-2.759 12.152C87.427 51.818 87.5 59.155 87.5 62.5c0 3.101 0 12.5-12.488 12.5H62.5c-8.143 0-15.43 3.931-19.995 10.01C39.478 82.715 37.5 79.077 37.5 75V62.5c0-2.472.439-4.419 1.123-6.024-.366-.067-.732-.226-1.123-.226H25.635a30.57 30.57 0 00-.623 6.25V75c0 13.807 11.182 25 24.988 25 0-6.909 5.591-12.5 12.5-12.5h12.512C87.5 87.5 100 80.469 100 62.5c0-15.289-8.691-22.375-18.823-24.335z"></path><path d="M50 12.5c4.663 0 12.5 1.623 12.5 12.5v12.5c0 4.09-1.978 7.721-5.005 10.004C52.93 41.437 45.654 37.5 37.5 37.5H25.012C12.5 37.5 12.5 28.095 12.5 25c0-3.735 0-12.5 12.512-12.5H50M50 0H25.012C12.5 0 0 6.641 0 25c0 17.969 12.5 25 25.012 25H37.5C44.409 50 50 55.604 50 62.5c13.807 0 25.012-11.193 25.012-25V25C75.012 7.745 62.5 0 50 0z"></path></g><!----></svg>